<svg data-v-0dd9719b="" version="1.0" xmlns="http://www.w3.org/2000/svg" xmlns:xlink="http://www.w3.org/1999/xlink" width="100%" height="100%" viewBox="0 0 340.000000 250.000000" preserveAspectRatio="xMidYMid meet" color-interpolation-filters="sRGB" style="margin: auto;"> <rect data-v-0dd9719b="" x="0" y="0" width="100%" height="100%" fill="#fff" fill-opacity="1" class="background"></rect> <rect data-v-0dd9719b="" x="0" y="0" width="100%" height="100%" fill="url(#watermark)" fill-opacity="1" class="watermarklayer"></rect> <g data-v-0dd9719b="" fill="#056fb8" class="icon-text-wrapper icon-svg-group iconsvg" transform="translate(48.69999694824219,94.54623794555664)"><g class="iconsvg-imagesvg" transform="translate(0,0)"><g><rect fill="#056fb8" fill-opacity="0" stroke-width="2" x="0" y="0" width="60" height="60.907522078976754" class="image-rect"></rect> <svg x="0" y="0" width="60" height="60.907522078976754" filtersec="colorsb3781932502" class="image-svg-svg primary" style="overflow: visible;"><svg xmlns="http://www.w3.org/2000/svg" viewBox="-0.055003028362989426 -0.08688876777887344 143.22000122070312 145.3868865966797"><defs><linearGradient id="a24fa4329-0fc9-4674-9fd2-c9ba24264c7d" x1="58.31" y1="49.98" x2="58.31" y2="439.45" gradientUnits="userSpaceOnUse"><stop offset="0" stop-color="#056fb8"></stop><stop offset="1" stop-color="#2ea6df"></stop></linearGradient><linearGradient id="b02895fab-fd6d-4118-8760-c35508fbb507" x1="33.47" y1="3.62" x2="33.47" y2="582.55" gradientUnits="userSpaceOnUse"><stop offset="0" stop-color="#056fb8"></stop><stop offset="1" stop-color="#2ea6df"></stop></linearGradient><linearGradient id="cbbfbfaf9-6c44-4d67-8a66-d1dd2f6d37f3" x1="84.36" y1="49.98" x2="84.36" y2="439.45" gradientUnits="userSpaceOnUse"><stop offset="0" stop-color="#056fb8"></stop><stop offset="1" stop-color="#2ea6df"></stop></linearGradient><linearGradient id="d96af4d4a-93fe-4050-8d09-4f5db9684f6f" x1="109.19" y1="3.62" x2="109.19" y2="582.55" gradientUnits="userSpaceOnUse"><stop offset="0" stop-color="#056fb8"></stop><stop offset="1" stop-color="#2ea6df"></stop></linearGradient></defs><g><g><path fill="url(#a24fa4329-0fc9-4674-9fd2-c9ba24264c7d)" d="M66.47 51.33l-16.32 9.42v84.55h16.32V51.33z"></path><path fill="url(#b02895fab-fd6d-4118-8760-c35508fbb507)" d="M40.49 66.33l-14.03 8.1v70.87h14.03V66.33z"></path><path fill="url(#cbbfbfaf9-6c44-4d67-8a66-d1dd2f6d37f3)" d="M92.52 60.75L76.2 51.33v93.97h16.32V60.75z"></path><path fill="url(#d96af4d4a-93fe-4050-8d09-4f5db9684f6f)" d="M116.21 74.43l-14.03-8.1v78.97h14.03V74.43z"></path><path d="M17 94.48a59.16 59.16 0 1 1 109.11 0v23.43a71.61 71.61 0 1 0-109.11 0z" fill="#056fb8"></path></g></g></svg></svg> <!----></g></g> <g transform="translate(67,2.7673606872558594)"><g data-gra="path-name" fill-rule="" class="tp-name iconsvg-namesvg" transform="translate(0,0)"><g transform="scale(1)"><g><path d="M21.49-33.27L21.49-33.27Q21.84-34.06 22.63-33.97L22.63-33.97Q23.16-33.84 23.47-33.49L23.47-33.49Q23.64-32.96 23.64-31.68L23.64-31.68 23.64-25.75 23.6-25.18Q23.55-24.08 24.61-24.08L24.61-24.08 39.68-24.08Q41-24.08 41.22-23.99L41.22-23.99Q41.84-23.77 41.75-22.81L41.75-22.81Q41.75-22.41 41.22-22.1L41.22-22.1Q41-22.02 39.73-22.02L39.73-22.02 24.74-22.02Q23.69-22.02 23.77-20.96L23.77-20.96Q24.87-13.36 29.31-7.08L29.31-7.08Q34.15-0.66 41.66 3.65L41.66 3.65Q42.45 3.96 42.5 4.79L42.5 4.79Q42.14 6.28 40.74 5.63L40.74 5.63Q26.76-3.25 22.94-15.64L22.94-15.64Q22.5-16.7 22.41-16.57L22.41-16.57Q22.28-16.35 22.06-15.69L22.06-15.69Q20.61-10.42 17.09-5.14L17.09-5.14Q14.19-1.05 10.2 2.02L10.2 2.02Q6.24 5.05 4.04 5.84L4.04 5.84Q2.55 6.33 2.29 4.92L2.29 4.92Q2.29 4.04 3.56 3.56L3.56 3.56Q6.68 2.07 10.59-1.23L10.59-1.23Q14.41-4.57 16.57-8.13L16.57-8.13Q20.21-14.28 21.05-20.96L21.05-20.96Q21.18-22.02 20.13-22.02L20.13-22.02 5.32-22.02Q4-22.02 3.78-22.1L3.78-22.1Q2.94-22.5 3.25-23.55L3.25-23.55Q3.38-23.91 3.78-24.04L3.78-24.04Q4-24.08 5.32-24.08L5.32-24.08 20.21-24.08Q21.27-24.08 21.4-25.14L21.4-25.14Q21.45-25.27 21.4-25.4L21.4-25.4 21.4-31.73Q21.4-33.05 21.49-33.27ZM72.73-33.66L72.73-33.66Q73.7-34.41 74.4-33.35L74.4-33.35Q74.53-33.09 74.53-32.21L74.53-32.21Q74.53-31.25 75.59-31.25L75.59-31.25 85.3-31.25Q86.62-31.25 86.75-31.2L86.75-31.2Q87.5-30.81 87.28-29.88L87.28-29.88Q87.19-29.58 86.75-29.36L86.75-29.36Q86.53-29.22 85.21-29.22L85.21-29.22 75.63-29.22Q74.53-29.22 74.53-28.17L74.53-28.17 74.53-26.54Q74.53-25.44 75.59-25.44L75.59-25.44 83.54-25.44Q85.34-24.96 85.61-23.2L85.61-23.2 85.61-11.43Q85.3-9.45 83.28-9.18L83.28-9.18 75.63-9.18Q74.53-9.18 74.53-8.13L74.53-8.13 74.53-6.15Q74.53-5.05 75.59-5.05L75.59-5.05 85.3-5.05Q86.62-5.05 86.75-5.01L86.75-5.01Q87.5-4.61 87.28-3.69L87.28-3.69Q87.19-3.38 86.75-3.16L86.75-3.16Q86.53-3.03 85.21-3.03L85.21-3.03 75.63-3.03Q74.53-3.03 74.53-1.98L74.53-1.98 74.53-0.75Q74.53 0.57 74.44 0.79L74.44 0.79Q74.09 1.36 73.43 1.41L73.43 1.41Q72.91 1.45 72.64 0.97L72.64 0.97Q72.47 0.57 72.47-0.75L72.47-0.75 72.47-1.98Q72.47-3.03 71.41-3.03L71.41-3.03 59.5-3.03Q58.49-3.52 58.8-4.57L58.8-4.57Q58.89-4.75 59.15-4.92L59.15-4.92Q59.5-5.05 60.82-5.05L60.82-5.05 71.41-5.05Q72.47-5.05 72.47-6.11L72.47-6.11 72.47-8.13Q72.47-9.18 71.41-9.18L71.41-9.18 63.63-9.18Q61.88-9.4 61.39-11.29L61.39-11.29 61.39-23.33Q61.61-25 63.54-25.44L63.54-25.44 71.41-25.44Q72.47-25.44 72.47-26.5L72.47-26.5 72.47-28.17Q72.47-29.22 71.41-29.22L71.41-29.22 62.09-29.22Q60.78-29.22 60.56-29.31L60.56-29.31Q59.68-29.84 60.07-30.76L60.07-30.76Q60.16-30.94 60.42-31.11L60.42-31.11Q60.78-31.25 62.09-31.25L62.09-31.25 71.41-31.25Q72.47-31.25 72.47-32.17L72.47-32.17Q72.33-33.09 72.73-33.66ZM49.61-32.3L49.61-32.3Q50.14-32.74 51.02-32.34L51.02-32.34Q53.48-31.25 56.29-28.87L56.29-28.87Q57.17-28.26 56.6-27.29L56.6-27.29Q55.68-26.41 54.71-27.51L54.71-27.51Q52.29-29.44 49.61-30.76L49.61-30.76Q48.96-31.29 49.61-32.3ZM48.3-23.16L48.3-23.16Q48.65-23.73 49.66-23.47L49.66-23.47Q52.16-22.37 54.93-20.21L54.93-20.21Q55.63-19.73 55.59-19.16L55.59-19.16Q55.46-18.41 54.93-18.19L54.93-18.19Q54.32-17.97 53.61-18.59L53.61-18.59Q51.37-20.35 49.22-21.36L49.22-21.36Q47.64-21.84 48.3-23.16ZM71.41-23.42L65.74-23.42Q64.69-23.42 64.2-23.29L64.2-23.29Q63.76-23.16 63.54-22.68L63.54-22.68Q63.46-22.46 63.46-21.45L63.46-21.45 63.46-19.56Q63.46-18.46 64.51-18.46L64.51-18.46 71.41-18.46Q72.47-18.46 72.47-19.51L72.47-19.51 72.47-22.37Q72.47-23.42 71.41-23.42L71.41-23.42ZM82.79-23.33L82.79-23.33Q82.53-23.42 81.52-23.42L81.52-23.42 75.63-23.42Q74.53-23.42 74.53-22.37L74.53-22.37 74.53-19.56Q74.53-18.46 75.59-18.46L75.59-18.46 82.49-18.46Q83.54-18.46 83.54-19.51L83.54-19.51 83.54-21.27Q83.54-22.32 83.5-22.54L83.5-22.54Q83.36-23.03 82.79-23.33ZM72.47-12.26L72.47-15.34Q72.47-16.39 71.41-16.39L71.41-16.39 64.56-16.39Q63.46-16.39 63.46-15.34L63.46-15.34 63.46-13.23Q63.46-12.17 63.68-11.73L63.68-11.73Q64.34-11.03 65.61-11.21L65.61-11.21 71.41-11.21Q72.47-11.21 72.47-12.26L72.47-12.26ZM83.54-12.39L83.54-15.34Q83.54-16.39 82.49-16.39L82.49-16.39 75.63-16.39Q74.53-16.39 74.53-15.34L74.53-15.34 74.53-12.3Q74.53-11.21 75.59-11.21L75.59-11.21 82.27-11.21Q83.36-11.29 83.54-12.39L83.54-12.39ZM49.09-13.62L49.09-13.62Q49.35-13.71 50.67-13.71L50.67-13.71 53.17-13.71Q55.42-13.32 55.9-10.94L55.9-10.94 55.9-2.42Q56.43 0.62 59.5 2.37L59.5 2.37Q61.7 3.34 63.72 3.52L63.72 3.52 71.76 3.65 79.72 3.65 80.9 3.6 83.89 3.6Q85.61 3.65 87.36 3.74L87.36 3.74Q87.85 3.74 88.02 4.35L88.02 4.35Q88.33 5.41 87.14 5.84L87.14 5.84 84.33 5.84 82.22 5.8 69.48 5.8 65.08 5.76Q61.96 5.54 59.81 4.57L59.81 4.57Q57.52 3.69 55.72 0.97L55.72 0.97Q55.11-0.09 54.49 0.97L54.49 0.97Q52.65 3.96 49.75 5.49L49.75 5.49Q48.74 6.06 48.08 5.89L48.08 5.89Q47.2 5.49 47.42 4.61L47.42 4.61Q47.81 3.96 48.65 3.65L48.65 3.65Q53.26 1.41 53.83-2.72L53.83-2.72 53.83-10.24Q53.31-11.95 51.46-11.65L51.46-11.65 50.63-11.65Q49.31-11.65 49.09-11.73L49.09-11.73Q48.16-12.17 48.56-13.23L48.56-13.23Q48.74-13.49 49.09-13.62ZM95.54-31.38L95.54-31.38Q95.71-31.46 96.99-31.46L96.99-31.46 129.24-31.46Q130.34-31.03 129.9-29.97L129.9-29.97Q129.81-29.75 129.55-29.58L129.55-29.58Q129.2-29.4 127.88-29.4L127.88-29.4 114.74-29.4Q113.64-29.4 113.64-28.34L113.64-28.34 113.64-21.58Q113.64-20.26 113.6-20.17L113.6-20.17Q113.51-19.2 113.64-18.5L113.64-18.5Q113.73-17.4 114.79-17.4L114.79-17.4 132.23-17.4Q132.76-17.27 132.93-16.79L132.93-16.79Q133.24-16.04 132.54-15.51L132.54-15.51Q132.19-15.34 130.87-15.34L130.87-15.34 115.14-15.34Q114.08-15.34 114.3-14.28L114.3-14.28Q116.37-6.11 124.45-0.09L124.45-0.09Q128.19 2.59 132.36 4.61L132.36 4.61Q132.67 4.7 132.89 5.14L132.89 5.14Q133.24 6.28 132.19 6.72L132.19 6.72Q131.75 6.81 130.69 6.24L130.69 6.24Q127.05 4.17 123.66 1.63L123.66 1.63Q115.49-4.75 112.94-12.13L112.94-12.13Q112.59-13.23 112.28-12.13L112.28-12.13Q109.47-2.55 98.75 4.13L98.75 4.13Q96.24 5.76 93.47 6.59L93.47 6.59Q92.9 6.81 92.59 6.5L92.59 6.5Q91.93 6.02 92.07 5.14L92.07 5.14Q92.11 4.66 92.72 4.48L92.72 4.48Q93.12 4.57 94.04 4.04L94.04 4.04Q97.87 2.29 101.07-0.13L101.07-0.13Q108.59-6.02 110.65-14.24L110.65-14.24Q110.87-15.34 109.86-15.34L109.86-15.34 93.91-15.34Q92.59-15.34 92.15-15.56L92.15-15.56Q91.71-15.91 91.76-16.39L91.76-16.39Q91.8-16.92 92.2-17.27L92.2-17.27Q92.55-17.4 93.87-17.4L93.87-17.4 110.13-17.4Q111.18-17.4 111.31-18.46L111.31-18.46 111.4-19.38 111.4-28.34Q111.4-29.4 110.35-29.4L110.35-29.4 97.03-29.4Q95.71-29.4 95.58-29.44L95.58-29.44Q94.75-29.93 94.97-30.76L94.97-30.76Q94.97-31.07 95.54-31.38ZM146.12-33.88L146.12-33.88Q147.04-34.41 147.66-33.4L147.66-33.4Q147.74-33.09 147.74-31.86L147.74-31.86 147.74-29.58Q147.83-27.07 148.32-25L148.32-25Q149.19-21.36 153.11-18.41L153.11-18.41Q153.98-17.75 155.74-16.7L155.74-16.7Q156.31-16.13 155.87-15.42L155.87-15.42Q155.35-14.72 154.6-15.12L154.6-15.12Q149.63-17.45 147.13-22.32L147.13-22.32Q146.73-23.33 146.25-22.19L146.25-22.19Q144.8-19.16 141.55-16.44L141.55-16.44Q140.84-15.82 139.79-15.34L139.79-15.34Q138.65-14.77 138.03-14.94L138.03-14.94Q137.68-15.03 137.5-15.51L137.5-15.51Q137.37-16.04 137.72-16.39L137.72-16.39 139.22-17.36Q145.46-21.31 145.68-27.77L145.68-27.77 145.68-31.86Q145.68-33.18 145.77-33.4 145.85-33.62 146.12-33.88ZM167.74-33.88L167.74-33.88Q168.66-34.41 169.28-33.4L169.28-33.4Q169.37-33.09 169.37-31.86L169.37-31.86 169.37-28.61Q169.15-26.15 170.68-23.29L170.68-23.29Q171.52-21.49 173.5-19.6L173.5-19.6Q175.3-18.02 177.45-16.79L177.45-16.79Q178.33-16.22 177.45-15.21L177.45-15.21Q176.88-14.77 176.04-15.29L176.04-15.29Q172.71-17.18 170.42-19.95L170.42-19.95Q169.58-21.01 168.84-22.46L168.84-22.46Q168.35-23.55 167.96-22.54L167.96-22.54Q167.26-20.83 166.03-19.25L166.03-19.25Q163.7-16.26 160.8-15.16L160.8-15.16Q159.35-14.37 158.95-15.73L158.95-15.73Q158.95-15.95 159.13-16.17L159.13-16.17Q159.7-16.88 160.93-17.53L160.93-17.53Q163.92-19.47 165.5-22.37L165.5-22.37Q167.21-25.36 167.3-28.83L167.3-28.83 167.3-31.86Q167.3-33.18 167.39-33.4 167.48-33.62 167.74-33.88ZM153.37-30.85L153.37-30.85Q153.68-31.99 154.78-31.73L154.78-31.73Q155.61-31.25 155.35-30.32L155.35-30.32Q154.73-26.94 153.59-25.05L153.59-25.05Q152.84-24.08 152.05-24.61L152.05-24.61Q151.22-25.14 151.92-26.46L151.92-26.46Q153.02-28.65 153.37-30.85ZM175.74-31.68L175.74-31.68Q176.75-32.08 177.14-31.03L177.14-31.03Q177.23-30.63 177.01-29.71L177.01-29.71Q176.35-27.38 175.3-25.31L175.3-25.31Q175.03-24.43 174.24-24.48L174.24-24.48Q172.97-24.7 173.28-25.8L173.28-25.8Q174.59-28.52 175.17-31.07L175.17-31.07Q175.3-31.46 175.74-31.68ZM138.47-31.11L138.47-31.11Q139.35-31.99 140.45-30.45L140.45-30.45Q141.24-29 141.77-26.94L141.77-26.94Q142.16-25.75 142.03-25.31L142.03-25.31Q141.5-24.43 140.71-24.65L140.71-24.65Q140.14-24.87 140.1-25.4L140.1-25.4Q139.61-27.29 138.82-28.92L138.82-28.92Q138.34-29.75 138.21-30.23L138.21-30.23Q138.08-30.67 138.47-31.11ZM160.14-31.33L160.14-31.33Q160.88-31.55 161.41-30.76L161.41-30.76Q162.95-28.34 163.56-26.37L163.56-26.37Q163.83-25.84 163.65-25.31L163.65-25.31Q163.34-24.43 162.42-24.61L162.42-24.61Q161.81-24.92 161.63-25.53L161.63-25.53Q160.71-28.13 159.52-29.93L159.52-29.93Q159.08-30.76 160.14-31.33ZM145.68-8.09L145.68-13.14Q146.21-14.37 147.3-13.84L147.3-13.84Q147.57-13.58 147.66-13.4L147.66-13.4Q147.74-13.1 147.74-11.78L147.74-11.78 147.74-8.22Q147.44-0.75 155.13 4.26L155.13 4.26Q155.83 4.61 156.05 5.19L156.05 5.19Q156.18 6.15 155.21 6.42L155.21 6.42Q154.56 6.59 153.9 5.93L153.9 5.93Q149.06 2.9 147.17-1.32L147.17-1.32Q146.69-2.46 146.29-1.45L146.29-1.45Q145.55 0.44 144.58 1.8L144.58 1.8Q142.43 5.05 139 6.5L139 6.5Q138.08 6.9 137.68 5.84L137.68 5.84Q137.42 5.27 137.99 4.83L137.99 4.83Q141.72 3.03 144.01-1.1L144.01-1.1Q145.63-4.48 145.68-8.09L145.68-8.09ZM167.3-7.56L167.3-13.14Q167.83-14.37 168.93-13.84L168.93-13.84Q169.19-13.58 169.28-13.4L169.28-13.4Q169.37-13.1 169.37-11.78L169.37-11.78 169.37-8.26Q169.23-8 169.28-7.16L169.28-7.16Q169.37-5.36 169.98-3.65L169.98-3.65Q171.96 1.41 177.32 4.53L177.32 4.53Q178.02 4.97 177.85 5.58L177.85 5.58Q177.36 6.9 176.13 6.24L176.13 6.24Q170.46 2.99 168.71-1.36L168.71-1.36Q168.31-2.42 167.83-1.27L167.83-1.27Q166.11 2.55 162.51 5.41L162.51 5.41Q161.41 6.15 160.09 6.59L160.09 6.59Q159.48 6.64 159.13 5.93L159.13 5.93Q158.77 5.14 159.61 4.75L159.61 4.75Q163.65 2.59 165.76-1.32L165.76-1.32Q167.26-4.53 167.3-7.56L167.3-7.56ZM153.68-11.38L153.68-11.38Q154.69-11.87 155.17-10.85L155.17-10.85Q155.3-10.37 155.13-9.98L155.13-9.98Q154.69-7.47 153.41-4.7L153.41-4.7Q152.93-3.56 152.05-3.91L152.05-3.91Q151.04-4.61 151.66-5.76L151.66-5.76Q152.8-8.13 153.15-10.59L153.15-10.59Q153.33-11.12 153.68-11.38ZM175.52-11.43L175.52-11.43Q176.44-11.87 176.97-10.9L176.97-10.9Q177.1-10.15 176.75-9.14L176.75-9.14Q175.91-5.89 174.81-4.09L174.81-4.09Q174.29-3.52 173.72-3.78L173.72-3.78Q172.4-4.39 173.58-6.24L173.58-6.24Q174.55-8.26 174.95-10.63L174.95-10.63Q175.08-11.21 175.52-11.43ZM138.91-10.9L138.91-10.9Q139.88-11.29 140.32-10.33L140.32-10.33Q142.21-6.72 142.08-4.92L142.08-4.92Q141.99-4.35 141.68-4.04L141.68-4.04Q140.27-3.38 140.01-5.01L140.01-5.01Q139.48-7.38 138.52-9.4L138.52-9.4Q138.03-10.33 138.91-10.9ZM160-10.85L160-10.85Q160.97-11.47 161.85-9.76L161.85-9.76Q162.73-7.95 163.48-5.36L163.48-5.36Q163.78-4.39 162.82-3.91L162.82-3.91Q161.94-3.65 161.54-4.57L161.54-4.57Q161.02-6.64 159.83-8.96L159.83-8.96Q158.99-10.24 160-10.85Z" transform="translate(-2.2899999618530273, 34.06240463256836)"></path></g> <!----> <!----> <!----> <!----> <!----> <!----> <!----></g></g> <g data-gra="path-slogan" fill-rule="" class="tp-slogan iconsvg-slogansvg" fill="#056fb8" transform="translate(46.31500244140625,46.794677734375)"><!----> <!----> <g transform="scale(1, 1)"><g transform="scale(1)"><path d="M4.41 0L0.94 0L0.94-8.58L4.45-8.58Q7.92-8.39 8.06-4.41L8.06-4.41Q7.88-0.09 4.41 0L4.41 0ZM4.27-7.64L2.11-7.64L2.11-0.98L4.36-0.98Q6.80-1.13 6.89-4.31L6.89-4.31Q6.84-7.55 4.27-7.64L4.27-7.64ZM15.19 0L14.34-2.48L10.88-2.48L9.98 0L8.81 0L12.05-8.58L13.36-8.58L16.45 0L15.19 0ZM12.61-7.31L11.25-3.52L13.92-3.52L12.66-7.31L12.61-7.31ZM17.48-8.58L18.66-8.58L18.66-1.03L23.02-1.03L23.02 0L17.48 0L17.48-8.58ZM24.33-8.58L25.50-8.58L25.50 0L24.33 0L24.33-8.58ZM33.14 0L32.30-2.48L28.83-2.48L27.94 0L26.77 0L30-8.58L31.31-8.58L34.41 0L33.14 0ZM30.56-7.31L29.20-3.52L31.88-3.52L30.61-7.31L30.56-7.31ZM36.84-8.58L41.16-1.64L41.16-8.58L42.28-8.58L42.28 0L40.97 0L36.61-6.94L36.56-6.94L36.56 0L35.44 0L35.44-8.58L36.84-8.58ZM49.59-7.59L46.69-7.59L46.69-8.58L53.63-8.58L53.63-7.59L50.72-7.59L50.72 0L49.59 0L49.59-7.59ZM54.84-8.58L56.02-8.58L56.02 0L54.84 0L54.84-8.58ZM63.66 0L62.81-2.48L59.34-2.48L58.45 0L57.28 0L60.52-8.58L61.83-8.58L64.92 0L63.66 0ZM61.08-7.31L59.72-3.52L62.39-3.52L61.13-7.31L61.08-7.31ZM67.36-8.58L71.67-1.64L71.67-8.58L72.80-8.58L72.80 0L71.48 0L67.13-6.94L67.08-6.94L67.08 0L65.95 0L65.95-8.58L67.36-8.58ZM81.52-8.58L78.28-3.47L78.28 0L77.11 0L77.11-3.47L73.88-8.58L75.23-8.58L77.67-4.45L80.16-8.58L81.52-8.58ZM82.73-8.58L83.91-8.58L83.91 0L82.73 0L82.73-8.58Z" transform="translate(-0.9375, 8.578125)"></path></g></g></g></g></g><defs v-gra="od"></defs></svg>